<svg xmlns="http://www.w3.org/2000/svg" width="15.143" height="15.018" viewBox="0 0 15.143 15.018"><defs><style>.a{fill:none;}.a,.b{stroke:#ffde0e;stroke-linecap:round;stroke-linejoin:round;stroke-width:2px;}.b{fill:rgba(0,0,0,0);}</style></defs><g transform="translate(1 1)"><path class="a" d="M1127.262,653.853h4.659a1.071,1.071,0,0,1,1.075,1.066v4.74" transform="translate(-1123.58 -650.294)"/><path class="b" d="M1.083,13.019A1.083,1.083,0,0,1,0,11.935V4.642A1.083,1.083,0,0,1,1.083,3.559h2.6V1.083A1.083,1.083,0,0,1,4.766,0h7.294a1.083,1.083,0,0,1,1.084,1.083V8.376a1.083,1.083,0,0,1-1.084,1.083H9.46v2.476a1.083,1.083,0,0,1-1.083,1.084Z"/></g></svg>